<?xml version="1.0" standalone="no"?>
<!DOCTYPE svg PUBLIC "-//W3C//DTD SVG 20010904//EN"
 "http://www.w3.org/TR/2001/REC-SVG-20010904/DTD/svg10.dtd">
<svg version="1.0" xmlns="http://www.w3.org/2000/svg"
 width="512.000000pt" height="512.000000pt" viewBox="0 0 512.000000 512.000000"
 preserveAspectRatio="xMidYMid meet">
<metadata>
Created by potrace 1.11, written by Peter Selinger 2001-2013
</metadata>
<g transform="translate(0.000000,512.000000) scale(0.100000,-0.100000)"
fill="#000000" stroke="none">
<path d="M430 4254 c-58 -18 -128 -70 -163 -121 -15 -21 -42 -80 -60 -129
l-32 -89 -3 -1385 c-2 -931 1 -1408 8 -1455 21 -143 107 -258 228 -307 l57
-23 2095 0 2095 0 57 23 c122 49 207 163 229 305 6 38 9 601 7 1457 l-3 1395
-33 84 c-55 141 -131 221 -237 250 -28 8 -655 11 -2120 10 -1776 0 -2087 -2
-2125 -15z m1940 -566 c0 -13 -5 -104 -10 -203 -17 -298 -29 -525 -45 -829
-24 -477 -25 -495 -35 -661 -5 -88 -15 -256 -21 -372 l-12 -213 -229 0 -230 0
7 113 c3 61 11 156 16 211 5 54 9 127 9 162 l0 64 -260 0 -260 0 -137 -275
-136 -275 -244 0 c-134 0 -243 2 -243 5 0 2 11 24 23 47 22 40 93 175 275 528
76 148 165 320 277 535 104 201 199 383 275 530 204 394 328 632 337 648 2 4
148 7 324 7 l319 0 0 -22z m1830 1 c0 -12 -4 -85 -10 -163 -5 -77 -16 -280
-25 -451 -8 -170 -17 -346 -20 -390 -3 -44 -10 -163 -15 -265 -9 -162 -19
-363 -46 -877 l-7 -133 -233 0 c-216 0 -232 1 -228 18 3 16 34 476 34 515 0
16 -18 17 -262 15 l-263 -3 -134 -272 -135 -273 -243 0 c-134 0 -243 3 -243 6
0 3 22 47 49 97 26 51 95 182 151 292 56 110 124 241 150 290 49 92 135 259
280 540 45 88 111 214 145 280 34 66 95 183 135 260 40 77 96 185 125 240 29
55 71 138 95 185 24 47 48 91 53 98 7 9 85 12 328 12 318 0 319 0 319 -21z"/>
<path d="M1865 3118 c-16 -35 -101 -210 -190 -389 -89 -179 -165 -333 -168
-342 -6 -15 10 -17 167 -17 l173 0 12 148 c25 313 31 401 37 530 4 72 5 132 2
132 -2 0 -17 -28 -33 -62z"/>
<path d="M3535 2795 c-104 -213 -193 -396 -197 -406 -7 -18 1 -19 166 -19
l174 0 6 103 c4 56 11 156 16 222 24 315 32 442 29 464 -3 17 -59 -89 -194
-364z"/>
</g>
</svg>
